<svg id="SvgjsSvg1006" width="232.5" height="638.5" xmlns="http://www.w3.org/2000/svg" version="1.1" xmlns:xlink="http://www.w3.org/1999/xlink" xmlns:svgjs="http://svgjs.com/svgjs"><defs id="SvgjsDefs1007"><marker id="SvgjsMarker1025" markerWidth="16" markerHeight="12" refX="10" refY="6" viewBox="0 0 16 12" orient="auto" markerUnits="userSpaceOnUse" stroke-dasharray="0,0"><path id="SvgjsPath1026" d="M0,3 L10,6 L0,9 L0,3" fill="#99ccff" stroke="#99ccff" stroke-width="1"></path></marker><marker id="SvgjsMarker1037" markerWidth="16" markerHeight="12" refX="10" refY="6" viewBox="0 0 16 12" orient="auto" markerUnits="userSpaceOnUse" stroke-dasharray="0,0"><path id="SvgjsPath1038" d="M0,3 L10,6 L0,9 L0,3" fill="#99ccff" stroke="#99ccff" stroke-width="1"></path></marker><marker id="SvgjsMarker1057" markerWidth="16" markerHeight="12" refX="10" refY="6" viewBox="0 0 16 12" orient="auto" markerUnits="userSpaceOnUse" stroke-dasharray="0,0"><path id="SvgjsPath1058" d="M0,3 L10,6 L0,9 L0,3" fill="#99ccff" stroke="#99ccff" stroke-width="1"></path></marker><marker id="SvgjsMarker1067" markerWidth="16" markerHeight="12" refX="10" refY="6" viewBox="0 0 16 12" orient="auto" markerUnits="userSpaceOnUse" stroke-dasharray="0,0"><path id="SvgjsPath1068" d="M0,3 L10,6 L0,9 L0,3" fill="#99ccff" stroke="#99ccff" stroke-width="1"></path></marker><marker id="SvgjsMarker1071" markerWidth="16" markerHeight="12" refX="10" refY="6" viewBox="0 0 16 12" orient="auto" markerUnits="userSpaceOnUse" stroke-dasharray="0,0"><path id="SvgjsPath1072" d="M0,3 L10,6 L0,9 L0,3" fill="#99ccff" stroke="#99ccff" stroke-width="1"></path></marker><marker id="SvgjsMarker1079" markerWidth="16" markerHeight="12" refX="10" refY="6" viewBox="0 0 16 12" orient="auto" markerUnits="userSpaceOnUse" stroke-dasharray="0,0"><path id="SvgjsPath1080" d="M0,3 L10,6 L0,9 L0,3" fill="#99ccff" stroke="#99ccff" stroke-width="1"></path></marker><marker id="SvgjsMarker1095" markerWidth="16" markerHeight="12" refX="10" refY="6" viewBox="0 0 16 12" orient="auto" markerUnits="userSpaceOnUse" stroke-dasharray="0,0"><path id="SvgjsPath1096" d="M0,3 L10,6 L0,9 L0,3" fill="#99ccff" stroke="#99ccff" stroke-width="1"></path></marker></defs><rect id="SvgjsRect1008" width="232.5" height="638.5" fill="#eff8fa"></rect><g id="SvgjsG1009" transform="translate(62.75,25)"><path id="SvgjsPath1010" d="M 13.333333333333334 0L 85.66666666666667 0C 103.44444444444444 0 103.44444444444444 40 85.66666666666667 40L 13.333333333333334 40C -4.444444444444445 40 -4.444444444444445 0 13.333333333333334 0Z" stroke="none" fill-opacity="1" fill="#ffffff"></path><g id="SvgjsG1011"><text id="SvgjsText1012" font-family="微软雅黑" text-anchor="middle" font-size="13px" width="79px" fill="#323232" font-weight="400" align="middle" anchor="middle" family="微软雅黑" size="13px" weight="400" font-style="" opacity="1" y="10.05" transform="rotate(0)"><tspan id="SvgjsTspan1013" dy="16" x="49.5"><tspan id="SvgjsTspan1014" style="text-decoration:;">开始</tspan></tspan></text></g></g><g id="SvgjsG1015" transform="translate(55,113)"><path id="SvgjsPath1016" d="M 0 32L 57.25 0L 114.5 32L 57.25 64L 0 32Z" stroke="none" fill-opacity="1" fill="#ffffff"></path><g id="SvgjsG1017"><text id="SvgjsText1018" font-family="微软雅黑" text-anchor="middle" font-size="13px" width="95px" fill="#323232" font-weight="400" align="middle" anchor="middle" family="微软雅黑" size="13px" weight="400" font-style="" opacity="1" y="14.05" transform="rotate(0)"><tspan id="SvgjsTspan1019" dy="16" x="57.5"><tspan id="SvgjsTspan1020" style="text-decoration:;">环境检测是</tspan></tspan><tspan id="SvgjsTspan1021" dy="16" x="57.5"><tspan id="SvgjsTspan1022" style="text-decoration:;">否满足</tspan></tspan></text></g></g><g id="SvgjsG1023"><path id="SvgjsPath1024" d="M112.25 65L112.25 89L112.25 89L112.25 113" stroke="#99ccff" stroke-width="1" fill="none" marker-end="url(#SvgjsMarker1025)"></path></g><g id="SvgjsG1027" transform="translate(55,229)"><path id="SvgjsPath1028" d="M 0 32L 57.25 0L 114.5 32L 57.25 64L 0 32Z" stroke="none" fill-opacity="1" fill="#ffffff"></path><g id="SvgjsG1029"><text id="SvgjsText1030" font-family="微软雅黑" text-anchor="middle" font-size="13px" width="95px" fill="#323232" font-weight="400" align="middle" anchor="middle" family="微软雅黑" size="13px" weight="400" font-style="" opacity="1" y="14.05" transform="rotate(0)"><tspan id="SvgjsTspan1031" dy="16" x="57.5"><tspan id="SvgjsTspan1032" style="text-decoration:;">数据依赖</tspan></tspan><tspan id="SvgjsTspan1033" dy="16" x="57.5"><tspan id="SvgjsTspan1034" style="text-decoration:;">是否完成</tspan></tspan></text></g></g><g id="SvgjsG1035"><path id="SvgjsPath1036" d="M112.25 177L112.25 203L112.25 203L112.25 229" stroke="#99ccff" stroke-width="1" fill="none" marker-end="url(#SvgjsMarker1037)"></path><rect id="SvgjsRect1039" width="25" height="16" x="99.75" y="195" fill="#ffffff"></rect><text id="SvgjsText1040" font-family="微软雅黑" text-anchor="middle" font-size="13px" width="25px" fill="#323232" font-weight="400" align="top" anchor="middle" family="微软雅黑" size="13px" weight="400" font-style="" opacity="1" y="193.05" transform="rotate(0)"><tspan id="SvgjsTspan1041" dy="16" x="112.25"><tspan id="SvgjsTspan1042" style="text-decoration:;">YES</tspan></tspan></text></g><g id="SvgjsG1043" transform="translate(62.75,573.5)"><path id="SvgjsPath1044" d="M 13.333333333333334 0L 85.66666666666667 0C 103.44444444444444 0 103.44444444444444 40 85.66666666666667 40L 13.333333333333334 40C -4.444444444444445 40 -4.444444444444445 0 13.333333333333334 0Z" stroke="none" fill-opacity="1" fill="#ffffff"></path><g id="SvgjsG1045"><text id="SvgjsText1046" font-family="微软雅黑" text-anchor="middle" font-size="13px" width="79px" fill="#323232" font-weight="400" align="middle" anchor="middle" family="微软雅黑" size="13px" weight="400" font-style="" opacity="1" y="10.05" transform="rotate(0)"><tspan id="SvgjsTspan1047" dy="16" x="49.5"><tspan id="SvgjsTspan1048" style="text-decoration:;">结束</tspan></tspan></text></g></g><g id="SvgjsG1049" transform="translate(55,341)"><path id="SvgjsPath1050" d="M 0 32L 57.25 0L 114.5 32L 57.25 64L 0 32Z" stroke="none" fill-opacity="1" fill="#ffffff"></path><g id="SvgjsG1051"><text id="SvgjsText1052" font-family="微软雅黑" text-anchor="middle" font-size="13px" width="95px" fill="#323232" font-weight="400" align="middle" anchor="middle" family="微软雅黑" size="13px" weight="400" font-style="" opacity="1" y="22.05" transform="rotate(0)"><tspan id="SvgjsTspan1053" dy="16" x="57.5"><tspan id="SvgjsTspan1054" style="text-decoration:;">模板填充</tspan></tspan></text></g></g><g id="SvgjsG1055"><path id="SvgjsPath1056" d="M112.25 293L112.25 317L112.25 317L112.25 341" stroke="#99ccff" stroke-width="1" fill="none" marker-end="url(#SvgjsMarker1057)"></path></g><g id="SvgjsG1059" transform="translate(55,456)"><path id="SvgjsPath1060" d="M 0 32L 57.25 0L 114.5 32L 57.25 64L 0 32Z" stroke="none" fill-opacity="1" fill="#ffffff"></path><g id="SvgjsG1061"><text id="SvgjsText1062" font-family="微软雅黑" text-anchor="middle" font-size="13px" width="95px" fill="#323232" font-weight="400" align="middle" anchor="middle" family="微软雅黑" size="13px" weight="400" font-style="" opacity="1" y="22.05" transform="rotate(0)"><tspan id="SvgjsTspan1063" dy="16" x="57.5"><tspan id="SvgjsTspan1064" style="text-decoration:;">生成校验</tspan></tspan></text></g></g><g id="SvgjsG1065"><path id="SvgjsPath1066" d="M112.25 405L112.25 430.5L112.25 430.5L112.25 456" stroke-dasharray="8,5" stroke="#99ccff" stroke-width="1" fill="none" marker-end="url(#SvgjsMarker1067)"></path></g><g id="SvgjsG1069"><path id="SvgjsPath1070" d="M112.25 520L112.25 546.75L112.25 546.75L112.25 573.5" stroke="#99ccff" stroke-width="1" fill="none" marker-end="url(#SvgjsMarker1071)"></path><rect id="SvgjsRect1073" width="50" height="16" x="87.25" y="538.75" fill="#ffffff"></rect><text id="SvgjsText1074" font-family="微软雅黑" text-anchor="middle" font-size="13px" width="50px" fill="#323232" font-weight="400" align="top" anchor="middle" family="微软雅黑" size="13px" weight="400" font-style="" opacity="1" y="536.8" transform="rotate(0)"><tspan id="SvgjsTspan1075" dy="16" x="112.25"><tspan id="SvgjsTspan1076" style="text-decoration:;">Success</tspan></tspan></text></g><g id="SvgjsG1077"><path id="SvgjsPath1078" d="M55 145L25 145L25 593.5L62.75 593.5" stroke="#99ccff" stroke-width="1" fill="none" marker-end="url(#SvgjsMarker1079)"></path><rect id="SvgjsRect1081" width="19" height="16" x="15.5" y="365.125" fill="#ffffff"></rect><text id="SvgjsText1082" font-family="微软雅黑" text-anchor="middle" font-size="13px" width="19px" fill="#323232" font-weight="400" align="top" anchor="middle" family="微软雅黑" size="13px" weight="400" font-style="" opacity="1" y="363.175" transform="rotate(0)"><tspan id="SvgjsTspan1083" dy="16" x="25"><tspan id="SvgjsTspan1084" style="text-decoration:;">NO</tspan></tspan></text></g><g id="SvgjsG1085"><path id="SvgjsPath1086" d="M55 261L41.375 261L41.375 261L27.75 261" stroke="#99ccff" stroke-width="1" fill="none"></path></g><g id="SvgjsG1087"><path id="SvgjsPath1088" d="M53.75 487.25L40.125 487.25L40.125 487.25L26.5 487.25" stroke="#99ccff" stroke-width="1" fill="none"></path><rect id="SvgjsRect1089" width="36" height="16" x="22.125" y="479.25" fill="#ffffff"></rect><text id="SvgjsText1090" font-family="微软雅黑" text-anchor="middle" font-size="13px" width="36px" fill="#323232" font-weight="400" align="top" anchor="middle" family="微软雅黑" size="13px" weight="400" font-style="" opacity="1" y="477.3" transform="rotate(0)"><tspan id="SvgjsTspan1091" dy="16" x="40.125"><tspan id="SvgjsTspan1092" style="text-decoration:;">Failed</tspan></tspan></text></g><g id="SvgjsG1093"><path id="SvgjsPath1094" d="M169.5 373L199.5 373L199.5 593.5L161.75 593.5" stroke="#99ccff" stroke-width="1" fill="none" marker-end="url(#SvgjsMarker1095)"></path><rect id="SvgjsRect1097" width="36" height="16" x="181.5" y="479.125" fill="#ffffff"></rect><text id="SvgjsText1098" font-family="微软雅黑" text-anchor="middle" font-size="13px" width="36px" fill="#323232" font-weight="400" align="top" anchor="middle" family="微软雅黑" size="13px" weight="400" font-style="" opacity="1" y="477.175" transform="rotate(0)"><tspan id="SvgjsTspan1099" dy="16" x="199.5"><tspan id="SvgjsTspan1100" style="text-decoration:;">Failed</tspan></tspan></text></g></svg>