<svg id="SvgjsSvg1155" width="436.265625" height="540.90625" xmlns="http://www.w3.org/2000/svg" version="1.1" xmlns:xlink="http://www.w3.org/1999/xlink" xmlns:svgjs="http://svgjs.com/svgjs"><defs id="SvgjsDefs1156"><marker id="SvgjsMarker1160" markerWidth="16" markerHeight="12" refX="10" refY="6" viewBox="0 0 16 12" orient="auto" markerUnits="userSpaceOnUse" stroke-dasharray="0,0"><path id="SvgjsPath1161" d="M0,3 L10,6 L0,9 L0,3" fill="#99ccff" stroke="#99ccff" stroke-width="1"></path></marker><marker id="SvgjsMarker1168" markerWidth="16" markerHeight="12" refX="10" refY="6" viewBox="0 0 16 12" orient="auto" markerUnits="userSpaceOnUse" stroke-dasharray="0,0"><path id="SvgjsPath1169" d="M0,3 L10,6 L0,9 L0,3" fill="#99ccff" stroke="#99ccff" stroke-width="1"></path></marker><marker id="SvgjsMarker1176" markerWidth="16" markerHeight="12" refX="10" refY="6" viewBox="0 0 16 12" orient="auto" markerUnits="userSpaceOnUse" stroke-dasharray="0,0"><path id="SvgjsPath1177" d="M0,3 L10,6 L0,9 L0,3" fill="#99ccff" stroke="#99ccff" stroke-width="1"></path></marker><marker id="SvgjsMarker1192" markerWidth="16" markerHeight="12" refX="10" refY="6" viewBox="0 0 16 12" orient="auto" markerUnits="userSpaceOnUse" stroke-dasharray="0,0"><path id="SvgjsPath1193" d="M0,3 L10,6 L0,9 L0,3" fill="#99ccff" stroke="#99ccff" stroke-width="1"></path></marker><marker id="SvgjsMarker1202" markerWidth="16" markerHeight="12" refX="10" refY="6" viewBox="0 0 16 12" orient="auto" markerUnits="userSpaceOnUse" stroke-dasharray="0,0"><path id="SvgjsPath1203" d="M0,3 L10,6 L0,9 L0,3" fill="#99ccff" stroke="#99ccff" stroke-width="1"></path></marker><marker id="SvgjsMarker1214" markerWidth="16" markerHeight="12" refX="10" refY="6" viewBox="0 0 16 12" orient="auto" markerUnits="userSpaceOnUse" stroke-dasharray="0,0"><path id="SvgjsPath1215" d="M0,3 L10,6 L0,9 L0,3" fill="#99ccff" stroke="#99ccff" stroke-width="1"></path></marker><marker id="SvgjsMarker1230" markerWidth="16" markerHeight="12" refX="10" refY="6" viewBox="0 0 16 12" orient="auto" markerUnits="userSpaceOnUse" stroke-dasharray="0,0"><path id="SvgjsPath1231" d="M0,3 L10,6 L0,9 L0,3" fill="#99ccff" stroke="#99ccff" stroke-width="1"></path></marker><marker id="SvgjsMarker1244" markerWidth="16" markerHeight="12" refX="10" refY="6" viewBox="0 0 16 12" orient="auto" markerUnits="userSpaceOnUse" stroke-dasharray="0,0"><path id="SvgjsPath1245" d="M0,3 L10,6 L0,9 L0,3" fill="#99ccff" stroke="#99ccff" stroke-width="1"></path></marker><marker id="SvgjsMarker1260" markerWidth="16" markerHeight="12" refX="10" refY="6" viewBox="0 0 16 12" orient="auto" markerUnits="userSpaceOnUse" stroke-dasharray="0,0"><path id="SvgjsPath1261" d="M0,3 L10,6 L0,9 L0,3" fill="#99ccff" stroke="#99ccff" stroke-width="1"></path></marker><marker id="SvgjsMarker1274" markerWidth="16" markerHeight="12" refX="10" refY="6" viewBox="0 0 16 12" orient="auto" markerUnits="userSpaceOnUse" stroke-dasharray="0,0"><path id="SvgjsPath1275" d="M0,3 L10,6 L0,9 L0,3" fill="#99ccff" stroke="#99ccff" stroke-width="1"></path></marker><marker id="SvgjsMarker1288" markerWidth="16" markerHeight="12" refX="10" refY="6" viewBox="0 0 16 12" orient="auto" markerUnits="userSpaceOnUse" stroke-dasharray="0,0"><path id="SvgjsPath1289" d="M0,3 L10,6 L0,9 L0,3" fill="#99ccff" stroke="#99ccff" stroke-width="1"></path></marker><marker id="SvgjsMarker1292" markerWidth="16" markerHeight="12" refX="10" refY="6" viewBox="0 0 16 12" orient="auto" markerUnits="userSpaceOnUse" stroke-dasharray="0,0"><path id="SvgjsPath1293" d="M0,3 L10,6 L0,9 L0,3" fill="#99ccff" stroke="#99ccff" stroke-width="1"></path></marker><marker id="SvgjsMarker1300" markerWidth="16" markerHeight="12" refX="10" refY="6" viewBox="0 0 16 12" orient="auto" markerUnits="userSpaceOnUse" stroke-dasharray="0,0"><path id="SvgjsPath1301" d="M0,3 L10,6 L0,9 L0,3" fill="#99ccff" stroke="#99ccff" stroke-width="1"></path></marker></defs><rect id="SvgjsRect1157" width="436.265625" height="540.90625" fill="#eff8fa"></rect><g id="SvgjsG1158"><path id="SvgjsPath1159" d="M61.5 253.5L27.5 253.5L27.5 490.9090909090903L245.1363636363625 490.9090909090903" stroke="#99ccff" stroke-width="1" fill="none" marker-end="url(#SvgjsMarker1160)"></path><rect id="SvgjsRect1162" width="25" height="16" x="15" y="340.46363636363617" fill="#ffffff"></rect><text id="SvgjsText1163" font-family="微软雅黑" text-anchor="middle" font-size="13px" width="25px" fill="#323232" font-weight="400" align="top" anchor="middle" family="微软雅黑" size="13px" weight="400" font-style="" opacity="1" y="338.5136363636362" transform="rotate(0)"><tspan id="SvgjsTspan1164" dy="16" x="27.5"><tspan id="SvgjsTspan1165" style="text-decoration:;">YES</tspan></tspan></text></g><g id="SvgjsG1166"><path id="SvgjsPath1167" d="M61.5 369.5L53.5 369.5L53.5 490.9090909090903L245.1363636363625 490.9090909090903" stroke="#99ccff" stroke-width="1" fill="none" marker-end="url(#SvgjsMarker1168)"></path><rect id="SvgjsRect1170" width="19" height="16" x="44" y="422.2045454545451" fill="#ffffff"></rect><text id="SvgjsText1171" font-family="微软雅黑" text-anchor="middle" font-size="13px" width="19px" fill="#323232" font-weight="400" align="top" anchor="middle" family="微软雅黑" size="13px" weight="400" font-style="" opacity="1" y="420.2545454545451" transform="rotate(0)"><tspan id="SvgjsTspan1172" dy="16" x="53.5"><tspan id="SvgjsTspan1173" style="text-decoration:;">NO</tspan></tspan></text></g><g id="SvgjsG1174"><path id="SvgjsPath1175" d="M355.1363251495036 192.37651116727L408.7726887858672 192.37651116727L408.7726887858672 490.9090909090903L345.1363636363625 490.9090909090903" stroke="#99ccff" stroke-width="1" fill="none" marker-end="url(#SvgjsMarker1176)"></path></g><g id="SvgjsG1178" transform="translate(71.5,25)"><path id="SvgjsPath1179" d="M 16.666666666666668 0L 83.33333333333333 0C 105.55555555555556 0 105.55555555555556 50 83.33333333333333 50L 16.666666666666668 50C -5.555555555555556 50 -5.555555555555556 0 16.666666666666668 0Z" stroke="none" fill-opacity="1" fill="#ffffff"></path><g id="SvgjsG1180"><text id="SvgjsText1181" font-family="微软雅黑" text-anchor="middle" font-size="13px" width="80px" fill="#323232" font-weight="400" align="middle" anchor="middle" family="微软雅黑" size="13px" weight="400" font-style="" opacity="1" y="15.05" transform="rotate(0)"><tspan id="SvgjsTspan1182" dy="16" x="50"><tspan id="SvgjsTspan1183" style="text-decoration:;">开始</tspan></tspan></text></g></g><g id="SvgjsG1184" transform="translate(71.5,126)"><path id="SvgjsPath1185" d="M 0 0L 100 0L 100 43L 0 43Z" stroke="none" fill-opacity="1" fill="#ffffff"></path><g id="SvgjsG1186"><text id="SvgjsText1187" font-family="微软雅黑" text-anchor="middle" font-size="13px" width="80px" fill="#323232" font-weight="400" align="middle" anchor="middle" family="微软雅黑" size="13px" weight="400" font-style="" opacity="1" y="11.55" transform="rotate(0)"><tspan id="SvgjsTspan1188" dy="16" x="50"><tspan id="SvgjsTspan1189" style="text-decoration:;">查看选课任务</tspan></tspan></text></g></g><g id="SvgjsG1190"><path id="SvgjsPath1191" d="M121.5 75L121.5 100.5L121.5 100.5L121.5 126" stroke="#99ccff" stroke-width="1" fill="none" marker-end="url(#SvgjsMarker1192)"></path></g><g id="SvgjsG1194" transform="translate(61.5,220)"><path id="SvgjsPath1195" d="M 0 33.5L 60 0L 120 33.5L 60 67L 0 33.5Z" stroke="none" fill-opacity="1" fill="#ffffff"></path><g id="SvgjsG1196"><text id="SvgjsText1197" font-family="微软雅黑" text-anchor="middle" font-size="13px" width="100px" fill="#323232" font-weight="400" align="middle" anchor="middle" family="微软雅黑" size="13px" weight="400" font-style="" opacity="1" y="23.55" transform="rotate(0)"><tspan id="SvgjsTspan1198" dy="16" x="60"><tspan id="SvgjsTspan1199" style="text-decoration:;">学分是否已满</tspan></tspan></text></g></g><g id="SvgjsG1200"><path id="SvgjsPath1201" d="M121.5 169L121.5 194.5L121.5 194.5L121.5 220" stroke="#99ccff" stroke-width="1" fill="none" marker-end="url(#SvgjsMarker1202)"></path></g><g id="SvgjsG1204" transform="translate(61.5,336)"><path id="SvgjsPath1205" d="M 0 33.5L 60 0L 120 33.5L 60 67L 0 33.5Z" stroke="none" fill-opacity="1" fill="#ffffff"></path><g id="SvgjsG1206"><text id="SvgjsText1207" font-family="微软雅黑" text-anchor="middle" font-size="13px" width="100px" fill="#323232" font-weight="400" align="middle" anchor="middle" family="微软雅黑" size="13px" weight="400" font-style="" opacity="1" y="15.55" transform="rotate(0)"><tspan id="SvgjsTspan1208" dy="16" x="60"><tspan id="SvgjsTspan1209" style="text-decoration:;">是否在选课时间</tspan></tspan><tspan id="SvgjsTspan1210" dy="16" x="60"><tspan id="SvgjsTspan1211" style="text-decoration:;">范围</tspan></tspan></text></g></g><g id="SvgjsG1212"><path id="SvgjsPath1213" d="M121.5 287L121.5 311.5L121.5 311.5L121.5 336" stroke="#99ccff" stroke-width="1" fill="none" marker-end="url(#SvgjsMarker1214)"></path><rect id="SvgjsRect1216" width="19" height="16" x="112" y="303.5" fill="#ffffff"></rect><text id="SvgjsText1217" font-family="微软雅黑" text-anchor="middle" font-size="13px" width="19px" fill="#323232" font-weight="400" align="top" anchor="middle" family="微软雅黑" size="13px" weight="400" font-style="" opacity="1" y="301.55" transform="rotate(0)"><tspan id="SvgjsTspan1218" dy="16" x="121.5"><tspan id="SvgjsTspan1219" style="text-decoration:;">NO</tspan></tspan></text></g><g id="SvgjsG1220" transform="translate(235.13636363636363,55.396694214875964)"><path id="SvgjsPath1221" d="M 0 33.5L 60 0L 120 33.5L 60 67L 0 33.5Z" stroke="none" fill-opacity="1" fill="#ffffff"></path><g id="SvgjsG1222"><text id="SvgjsText1223" font-family="微软雅黑" text-anchor="middle" font-size="13px" width="100px" fill="#323232" font-weight="400" align="middle" anchor="middle" family="微软雅黑" size="13px" weight="400" font-style="" opacity="1" y="15.55" transform="rotate(0)"><tspan id="SvgjsTspan1224" dy="16" x="60"><tspan id="SvgjsTspan1225" style="text-decoration:;">是否已选择该课</tspan></tspan><tspan id="SvgjsTspan1226" dy="16" x="60"><tspan id="SvgjsTspan1227" style="text-decoration:;">程</tspan></tspan></text></g></g><g id="SvgjsG1228"><path id="SvgjsPath1229" d="M121.5 403L121.5 433L208.31818181818176 433L208.31818181818176 25.396694214875964L295.1363636363636 25.396694214875964L295.1363636363636 55.396694214875964" stroke="#99ccff" stroke-width="1" fill="none" marker-end="url(#SvgjsMarker1230)"></path><rect id="SvgjsRect1232" width="25" height="16" x="195.81818181818176" y="221.19834710743794" fill="#ffffff"></rect><text id="SvgjsText1233" font-family="微软雅黑" text-anchor="middle" font-size="13px" width="25px" fill="#323232" font-weight="400" align="top" anchor="middle" family="微软雅黑" size="13px" weight="400" font-style="" opacity="1" y="219.24834710743795" transform="rotate(0)"><tspan id="SvgjsTspan1234" dy="16" x="208.31818181818176"><tspan id="SvgjsTspan1235" style="text-decoration:;">YES</tspan></tspan></text></g><g id="SvgjsG1236" transform="translate(235.1363251495036,158.87651116726997)"><path id="SvgjsPath1237" d="M 0 33.5L 60 0L 120 33.5L 60 67L 0 33.5Z" stroke="none" fill-opacity="1" fill="#ffffff"></path><g id="SvgjsG1238"><text id="SvgjsText1239" font-family="微软雅黑" text-anchor="middle" font-size="13px" width="100px" fill="#323232" font-weight="400" align="middle" anchor="middle" family="微软雅黑" size="13px" weight="400" font-style="" opacity="1" y="23.55" transform="rotate(0)"><tspan id="SvgjsTspan1240" dy="16" x="60"><tspan id="SvgjsTspan1241" style="text-decoration:;">是否人员已满</tspan></tspan></text></g></g><g id="SvgjsG1242"><path id="SvgjsPath1243" d="M295.1363636363636 122.39669421487608L295.1363636363636 140.63660269107302L295.1363251495036 140.63660269107302L295.1363251495036 158.87651116726997" stroke="#99ccff" stroke-width="1" fill="none" marker-end="url(#SvgjsMarker1244)"></path><rect id="SvgjsRect1246" width="19" height="16" x="285.6363443929336" y="132.63660269107302" fill="#ffffff"></rect><text id="SvgjsText1247" font-family="微软雅黑" text-anchor="middle" font-size="13px" width="19px" fill="#323232" font-weight="400" align="top" anchor="middle" family="微软雅黑" size="13px" weight="400" font-style="" opacity="1" y="130.68660269107303" transform="rotate(0)"><tspan id="SvgjsTspan1248" dy="16" x="295.1363443929336"><tspan id="SvgjsTspan1249" style="text-decoration:;">NO</tspan></tspan></text></g><g id="SvgjsG1250" transform="translate(235.0851376272102,264.0052592036067)"><path id="SvgjsPath1251" d="M 0 33.5L 60 0L 120 33.5L 60 67L 0 33.5Z" stroke="none" fill-opacity="1" fill="#ffffff"></path><g id="SvgjsG1252"><text id="SvgjsText1253" font-family="微软雅黑" text-anchor="middle" font-size="13px" width="100px" fill="#323232" font-weight="400" align="middle" anchor="middle" family="微软雅黑" size="13px" weight="400" font-style="" opacity="1" y="15.55" transform="rotate(0)"><tspan id="SvgjsTspan1254" dy="16" x="60"><tspan id="SvgjsTspan1255" style="text-decoration:;">是否满足性别要</tspan></tspan><tspan id="SvgjsTspan1256" dy="16" x="60"><tspan id="SvgjsTspan1257" style="text-decoration:;">求</tspan></tspan></text></g></g><g id="SvgjsG1258"><path id="SvgjsPath1259" d="M295.1363251495036 225.87651116727056L295.1363251495036 244.94088518543867L295.0851376272102 244.94088518543867L295.0851376272102 264.0052592036067" stroke="#99ccff" stroke-width="1" fill="none" marker-end="url(#SvgjsMarker1260)"></path><rect id="SvgjsRect1262" width="19" height="16" x="285.61073138835695" y="236.94088518543867" fill="#ffffff"></rect><text id="SvgjsText1263" font-family="微软雅黑" text-anchor="middle" font-size="13px" width="19px" fill="#323232" font-weight="400" align="top" anchor="middle" family="微软雅黑" size="13px" weight="400" font-style="" opacity="1" y="234.99088518543869" transform="rotate(0)"><tspan id="SvgjsTspan1264" dy="16" x="295.11073138835695"><tspan id="SvgjsTspan1265" style="text-decoration:;">NO</tspan></tspan></text></g><g id="SvgjsG1266" transform="translate(244.9546820572367,371.45454545454544)"><path id="SvgjsPath1267" d="M 0 0L 100 0L 100 43L 0 43Z" stroke="none" fill-opacity="1" fill="#ffffff"></path><g id="SvgjsG1268"><text id="SvgjsText1269" font-family="微软雅黑" text-anchor="middle" font-size="13px" width="80px" fill="#323232" font-weight="400" align="middle" anchor="middle" family="微软雅黑" size="13px" weight="400" font-style="" opacity="1" y="11.55" transform="rotate(0)"><tspan id="SvgjsTspan1270" dy="16" x="50"><tspan id="SvgjsTspan1271" style="text-decoration:;">选课成功</tspan></tspan></text></g></g><g id="SvgjsG1272"><path id="SvgjsPath1273" d="M295.0851376272102 331.0052592036067L295.0851376272102 351.2299023290761L294.9546820572367 351.2299023290761L294.9546820572367 371.45454545454544" stroke="#99ccff" stroke-width="1" fill="none" marker-end="url(#SvgjsMarker1274)"></path><rect id="SvgjsRect1276" width="25" height="16" x="282" y="336" fill="#ffffff"></rect><text id="SvgjsText1277" font-family="微软雅黑" text-anchor="middle" font-size="13px" width="25px" fill="#323232" font-weight="400" align="top" anchor="middle" family="微软雅黑" size="13px" weight="400" font-style="" opacity="1" y="334.05" transform="rotate(0)"><tspan id="SvgjsTspan1278" dy="16" x="294.5"><tspan id="SvgjsTspan1279" style="text-decoration:;">YES</tspan></tspan></text></g><g id="SvgjsG1280" transform="translate(245.1363636363625,465.9090909090903)"><path id="SvgjsPath1281" d="M 16.666666666666668 0L 83.33333333333333 0C 105.55555555555556 0 105.55555555555556 50 83.33333333333333 50L 16.666666666666668 50C -5.555555555555556 50 -5.555555555555556 0 16.666666666666668 0Z" stroke="none" fill-opacity="1" fill="#ffffff"></path><g id="SvgjsG1282"><text id="SvgjsText1283" font-family="微软雅黑" text-anchor="middle" font-size="13px" width="80px" fill="#323232" font-weight="400" align="middle" anchor="middle" family="微软雅黑" size="13px" weight="400" font-style="" opacity="1" y="15.05" transform="rotate(0)"><tspan id="SvgjsTspan1284" dy="16" x="50"><tspan id="SvgjsTspan1285" style="text-decoration:;">结束</tspan></tspan></text></g></g><g id="SvgjsG1286"><path id="SvgjsPath1287" d="M294.9546820572367 414.45454545454544L294.9546820572367 440.1818181818179L295.1363636363625 440.1818181818179L295.1363636363625 465.9090909090903" stroke="#99ccff" stroke-width="1" fill="none" marker-end="url(#SvgjsMarker1288)"></path></g><g id="SvgjsG1290"><path id="SvgjsPath1291" d="M355.1363636363636 88.89669421487596L408.77272727272714 88.89669421487596L408.77272727272714 490.9090909090903L345.1363636363625 490.9090909090903" stroke="#99ccff" stroke-width="1" fill="none" marker-end="url(#SvgjsMarker1292)"></path><rect id="SvgjsRect1294" width="25" height="16" x="396.27272727272714" y="286.9028925619837" fill="#ffffff"></rect><text id="SvgjsText1295" font-family="微软雅黑" text-anchor="middle" font-size="13px" width="25px" fill="#323232" font-weight="400" align="top" anchor="middle" family="微软雅黑" size="13px" weight="400" font-style="" opacity="1" y="284.95289256198373" transform="rotate(0)"><tspan id="SvgjsTspan1296" dy="16" x="408.77272727272714"><tspan id="SvgjsTspan1297" style="text-decoration:;">YES</tspan></tspan></text></g><g id="SvgjsG1298"><path id="SvgjsPath1299" d="M355.0851376272102 297.5052592036067L385.0851376272102 297.5052592036067L385.0851376272102 490.9090909090903L345.1363636363625 490.9090909090903" stroke="#99ccff" stroke-width="1" fill="none" marker-end="url(#SvgjsMarker1300)"></path><rect id="SvgjsRect1302" width="19" height="16" x="375.5851376272102" y="391.1815620517724" fill="#ffffff"></rect><text id="SvgjsText1303" font-family="微软雅黑" text-anchor="middle" font-size="13px" width="19px" fill="#323232" font-weight="400" align="top" anchor="middle" family="微软雅黑" size="13px" weight="400" font-style="" opacity="1" y="389.2315620517724" transform="rotate(0)"><tspan id="SvgjsTspan1304" dy="16" x="385.0851376272102"><tspan id="SvgjsTspan1305" style="text-decoration:;">NO</tspan></tspan></text></g></svg>