<svg id="SvgjsSvg1211" width="477.5" height="603" xmlns="http://www.w3.org/2000/svg" version="1.1" xmlns:xlink="http://www.w3.org/1999/xlink" xmlns:svgjs="http://svgjs.com/svgjs"><defs id="SvgjsDefs1212"><marker id="SvgjsMarker1228" markerWidth="16" markerHeight="12" refX="10" refY="6" viewBox="0 0 16 12" orient="auto" markerUnits="userSpaceOnUse" stroke-dasharray="0,0"><path id="SvgjsPath1229" d="M0,3 L10,6 L0,9 L0,3" fill="#99ccff" stroke="#99ccff" stroke-width="1"></path></marker><marker id="SvgjsMarker1238" markerWidth="16" markerHeight="12" refX="10" refY="6" viewBox="0 0 16 12" orient="auto" markerUnits="userSpaceOnUse" stroke-dasharray="0,0"><path id="SvgjsPath1239" d="M0,3 L10,6 L0,9 L0,3" fill="#99ccff" stroke="#99ccff" stroke-width="1"></path></marker><marker id="SvgjsMarker1252" markerWidth="16" markerHeight="12" refX="10" refY="6" viewBox="0 0 16 12" orient="auto" markerUnits="userSpaceOnUse" stroke-dasharray="0,0"><path id="SvgjsPath1253" d="M0,3 L10,6 L0,9 L0,3" fill="#99ccff" stroke="#99ccff" stroke-width="1"></path></marker><marker id="SvgjsMarker1260" markerWidth="16" markerHeight="12" refX="10" refY="6" viewBox="0 0 16 12" orient="auto" markerUnits="userSpaceOnUse" stroke-dasharray="0,0"><path id="SvgjsPath1261" d="M0,3 L10,6 L0,9 L0,3" fill="#99ccff" stroke="#99ccff" stroke-width="1"></path></marker><marker id="SvgjsMarker1276" markerWidth="16" markerHeight="12" refX="10" refY="6" viewBox="0 0 16 12" orient="auto" markerUnits="userSpaceOnUse" stroke-dasharray="0,0"><path id="SvgjsPath1277" d="M0,3 L10,6 L0,9 L0,3" fill="#99ccff" stroke="#99ccff" stroke-width="1"></path></marker><marker id="SvgjsMarker1284" markerWidth="16" markerHeight="12" refX="10" refY="6" viewBox="0 0 16 12" orient="auto" markerUnits="userSpaceOnUse" stroke-dasharray="0,0"><path id="SvgjsPath1285" d="M0,3 L10,6 L0,9 L0,3" fill="#99ccff" stroke="#99ccff" stroke-width="1"></path></marker><marker id="SvgjsMarker1298" markerWidth="16" markerHeight="12" refX="10" refY="6" viewBox="0 0 16 12" orient="auto" markerUnits="userSpaceOnUse" stroke-dasharray="0,0"><path id="SvgjsPath1299" d="M0,3 L10,6 L0,9 L0,3" fill="#99ccff" stroke="#99ccff" stroke-width="1"></path></marker><marker id="SvgjsMarker1302" markerWidth="16" markerHeight="12" refX="10" refY="6" viewBox="0 0 16 12" orient="auto" markerUnits="userSpaceOnUse" stroke-dasharray="0,0"><path id="SvgjsPath1303" d="M0,3 L10,6 L0,9 L0,3" fill="#99ccff" stroke="#99ccff" stroke-width="1"></path></marker><marker id="SvgjsMarker1312" markerWidth="16" markerHeight="12" refX="10" refY="6" viewBox="0 0 16 12" orient="auto" markerUnits="userSpaceOnUse" stroke-dasharray="0,0"><path id="SvgjsPath1313" d="M0,3 L10,6 L0,9 L0,3" fill="#99ccff" stroke="#99ccff" stroke-width="1"></path></marker></defs><rect id="SvgjsRect1213" width="477.5" height="603" fill="#eff8fa"></rect><g id="SvgjsG1214" transform="translate(173.5,25)"><path id="SvgjsPath1215" d="M 14.333333333333334 0L 86.66666666666667 0C 105.77777777777777 0 105.77777777777777 43 86.66666666666667 43L 14.333333333333334 43C -4.777777777777778 43 -4.777777777777778 0 14.333333333333334 0Z" stroke="none" fill-opacity="1" fill="#ffffff"></path><g id="SvgjsG1216"><text id="SvgjsText1217" font-family="微软雅黑" text-anchor="middle" font-size="13px" width="81px" fill="#323232" font-weight="400" align="middle" anchor="middle" family="微软雅黑" size="13px" weight="400" font-style="" opacity="1" y="11.55" transform="rotate(0)"><tspan id="SvgjsTspan1218" dy="16" x="50.5"><tspan id="SvgjsTspan1219" style="text-decoration:;">开始</tspan></tspan></text></g></g><g id="SvgjsG1220" transform="translate(173.5,117)"><path id="SvgjsPath1221" d="M 0 28L 50.5 0L 101 28L 50.5 56L 0 28Z" stroke="none" fill-opacity="1" fill="#ffffff"></path><g id="SvgjsG1222"><text id="SvgjsText1223" font-family="微软雅黑" text-anchor="middle" font-size="13px" width="81px" fill="#323232" font-weight="400" align="middle" anchor="middle" family="微软雅黑" size="13px" weight="400" font-style="" opacity="1" y="18.05" transform="rotate(0)"><tspan id="SvgjsTspan1224" dy="16" x="50.5"><tspan id="SvgjsTspan1225" style="text-decoration:;">是否注册</tspan></tspan></text></g></g><g id="SvgjsG1226"><path id="SvgjsPath1227" d="M224 68L224 91L224 91L224 117" stroke="#99ccff" stroke-width="1" fill="none" marker-end="url(#SvgjsMarker1228)"></path></g><g id="SvgjsG1230" transform="translate(170,246.5)"><path id="SvgjsPath1231" d="M 0 0L 108 0L 108 43L 0 43Z" stroke="none" fill-opacity="1" fill="#ffffff"></path><g id="SvgjsG1232"><text id="SvgjsText1233" font-family="微软雅黑" text-anchor="middle" font-size="13px" width="88px" fill="#323232" font-weight="400" align="middle" anchor="middle" family="微软雅黑" size="13px" weight="400" font-style="" opacity="1" y="11.55" transform="rotate(0)"><tspan id="SvgjsTspan1234" dy="16" x="54"><tspan id="SvgjsTspan1235" style="text-decoration:;">登录</tspan></tspan></text></g></g><g id="SvgjsG1236"><path id="SvgjsPath1237" d="M224 173L224 209.5L224 209.5L224 246.5" stroke="#99ccff" stroke-width="1" fill="none" marker-end="url(#SvgjsMarker1238)"></path><rect id="SvgjsRect1240" width="9" height="16" x="219.5" y="201.75" fill="#ffffff"></rect><text id="SvgjsText1241" font-family="微软雅黑" text-anchor="middle" font-size="13px" width="9px" fill="#323232" font-weight="400" align="top" anchor="middle" family="微软雅黑" size="13px" weight="400" font-style="" opacity="1" y="199.8" transform="rotate(0)"><tspan id="SvgjsTspan1242" dy="16" x="224"><tspan id="SvgjsTspan1243" style="text-decoration:;">Y</tspan></tspan></text></g><g id="SvgjsG1244" transform="translate(25,186)"><path id="SvgjsPath1245" d="M 0 0L 108 0L 108 43L 0 43Z" stroke="none" fill-opacity="1" fill="#ffffff"></path><g id="SvgjsG1246"><text id="SvgjsText1247" font-family="微软雅黑" text-anchor="middle" font-size="13px" width="88px" fill="#323232" font-weight="400" align="middle" anchor="middle" family="微软雅黑" size="13px" weight="400" font-style="" opacity="1" y="11.55" transform="rotate(0)"><tspan id="SvgjsTspan1248" dy="16" x="54"><tspan id="SvgjsTspan1249" style="text-decoration:;">注册</tspan></tspan></text></g></g><g id="SvgjsG1250"><path id="SvgjsPath1251" d="M173.5 145L79 145L79 186" stroke="#99ccff" stroke-width="1" fill="none" marker-end="url(#SvgjsMarker1252)"></path><rect id="SvgjsRect1254" width="9" height="16" x="101.25" y="137" fill="#ffffff"></rect><text id="SvgjsText1255" font-family="微软雅黑" text-anchor="middle" font-size="13px" width="9px" fill="#323232" font-weight="400" align="top" anchor="middle" family="微软雅黑" size="13px" weight="400" font-style="" opacity="1" y="135.05" transform="rotate(0)"><tspan id="SvgjsTspan1256" dy="16" x="105.75"><tspan id="SvgjsTspan1257" style="text-decoration:;">N</tspan></tspan></text></g><g id="SvgjsG1258"><path id="SvgjsPath1259" d="M79 229L79 268L170 268" stroke="#99ccff" stroke-width="1" fill="none" marker-end="url(#SvgjsMarker1260)"></path></g><g id="SvgjsG1262" transform="translate(170,352)"><path id="SvgjsPath1263" d="M 0 0L 108 0L 108 43L 0 43Z" stroke="none" fill-opacity="1" fill="#ffffff"></path><g id="SvgjsG1264"><text id="SvgjsText1265" font-family="微软雅黑" text-anchor="middle" font-size="13px" width="88px" fill="#323232" font-weight="400" align="middle" anchor="middle" family="微软雅黑" size="13px" weight="400" font-style="" opacity="1" y="11.55" transform="rotate(0)"><tspan id="SvgjsTspan1266" dy="16" x="54"><tspan id="SvgjsTspan1267" style="text-decoration:;">教师系统</tspan></tspan></text></g></g><g id="SvgjsG1268" transform="translate(344.5,246.5)"><path id="SvgjsPath1269" d="M 0 0L 108 0L 108 43L 0 43Z" stroke="none" fill-opacity="1" fill="#ffffff"></path><g id="SvgjsG1270"><text id="SvgjsText1271" font-family="微软雅黑" text-anchor="middle" font-size="13px" width="88px" fill="#323232" font-weight="400" align="middle" anchor="middle" family="微软雅黑" size="13px" weight="400" font-style="" opacity="1" y="11.55" transform="rotate(0)"><tspan id="SvgjsTspan1272" dy="16" x="54"><tspan id="SvgjsTspan1273" style="text-decoration:;">学生系统</tspan></tspan></text></g></g><g id="SvgjsG1274"><path id="SvgjsPath1275" d="M224 289.5L224 320.5L224 320.5L224 352" stroke="#99ccff" stroke-width="1" fill="none" marker-end="url(#SvgjsMarker1276)"></path><rect id="SvgjsRect1278" width="26" height="16" x="211" y="312.75" fill="#ffffff"></rect><text id="SvgjsText1279" font-family="微软雅黑" text-anchor="middle" font-size="13px" width="26px" fill="#323232" font-weight="400" align="top" anchor="middle" family="微软雅黑" size="13px" weight="400" font-style="" opacity="1" y="310.8" transform="rotate(0)"><tspan id="SvgjsTspan1280" dy="16" x="224"><tspan id="SvgjsTspan1281" style="text-decoration:;">教师</tspan></tspan></text></g><g id="SvgjsG1282"><path id="SvgjsPath1283" d="M278 268L310.5 268L310.5 268L344.5 268" stroke="#99ccff" stroke-width="1" fill="none" marker-end="url(#SvgjsMarker1284)"></path><rect id="SvgjsRect1286" width="26" height="16" x="298.25" y="260" fill="#ffffff"></rect><text id="SvgjsText1287" font-family="微软雅黑" text-anchor="middle" font-size="13px" width="26px" fill="#323232" font-weight="400" align="top" anchor="middle" family="微软雅黑" size="13px" weight="400" font-style="" opacity="1" y="258.05" transform="rotate(0)"><tspan id="SvgjsTspan1288" dy="16" x="311.25"><tspan id="SvgjsTspan1289" style="text-decoration:;">学生</tspan></tspan></text></g><g id="SvgjsG1290" transform="translate(170,443)"><path id="SvgjsPath1291" d="M 0 0L 108 0L 108 43L 0 43Z" stroke="none" fill-opacity="1" fill="#ffffff"></path><g id="SvgjsG1292"><text id="SvgjsText1293" font-family="微软雅黑" text-anchor="middle" font-size="13px" width="88px" fill="#323232" font-weight="400" align="middle" anchor="middle" family="微软雅黑" size="13px" weight="400" font-style="" opacity="1" y="11.55" transform="rotate(0)"><tspan id="SvgjsTspan1294" dy="16" x="54"><tspan id="SvgjsTspan1295" style="text-decoration:;">用户信息操作</tspan></tspan></text></g></g><g id="SvgjsG1296"><path id="SvgjsPath1297" d="M224 395L224 419L224 419L224 443" stroke="#99ccff" stroke-width="1" fill="none" marker-end="url(#SvgjsMarker1298)"></path></g><g id="SvgjsG1300"><path id="SvgjsPath1301" d="M398.5 289.5L398.5 464.5L278 464.5" stroke="#99ccff" stroke-width="1" fill="none" marker-end="url(#SvgjsMarker1302)"></path></g><g id="SvgjsG1304" transform="translate(173.5,535)"><path id="SvgjsPath1305" d="M 14.333333333333334 0L 86.66666666666667 0C 105.77777777777777 0 105.77777777777777 43 86.66666666666667 43L 14.333333333333334 43C -4.777777777777778 43 -4.777777777777778 0 14.333333333333334 0Z" stroke="none" fill-opacity="1" fill="#ffffff"></path><g id="SvgjsG1306"><text id="SvgjsText1307" font-family="微软雅黑" text-anchor="middle" font-size="13px" width="81px" fill="#323232" font-weight="400" align="middle" anchor="middle" family="微软雅黑" size="13px" weight="400" font-style="" opacity="1" y="11.55" transform="rotate(0)"><tspan id="SvgjsTspan1308" dy="16" x="50.5"><tspan id="SvgjsTspan1309" style="text-decoration:;">退出登录</tspan></tspan></text></g></g><g id="SvgjsG1310"><path id="SvgjsPath1311" d="M224 486L224 510.5L224 510.5L224 535" stroke="#99ccff" stroke-width="1" fill="none" marker-end="url(#SvgjsMarker1312)"></path></g></svg>